<?xml version="1.0" standalone="no"?>
<svg viewBox="0 0 200 200" xmlns="http://www.w3.org/2000/svg">
  <path fill="#08BDBA" d="M36.8,-53.1C48.9,-49.4,60.7,-41.3,66.3,-30C71.9,-18.7,71.2,-4.3,69.5,10.2C67.8,24.8,65.1,39.4,57.7,52.5C50.2,65.5,38.1,77.1,24.2,80C10.3,83,-5.4,77.3,-17.7,69.5C-29.9,61.6,-38.8,51.5,-46.9,41.2C-55,30.9,-62.3,20.5,-69.2,6.8C-76.1,-6.9,-82.6,-23.8,-79,-37.9C-75.4,-52,-61.7,-63.4,-46.9,-65.8C-32,-68.2,-16,-61.7,-1.8,-58.8C12.3,-55.9,24.7,-56.8,36.8,-53.1Z" transform="translate(100 100)" />
</svg>
