<?xml version="1.0" standalone="no"?><svg xmlns="http://www.w3.org/2000/svg" viewBox="0 0 1440 320"><path fill="#0099ff" fill-opacity="1" d="M0,192L21.8,181.3C43.6,171,87,149,131,144C174.5,139,218,149,262,133.3C305.5,117,349,75,393,90.7C436.4,107,480,181,524,192C567.3,203,611,149,655,149.3C698.2,149,742,203,785,213.3C829.1,224,873,192,916,160C960,128,1004,96,1047,106.7C1090.9,117,1135,171,1178,192C1221.8,213,1265,203,1309,192C1352.7,181,1396,171,1418,165.3L1440,160L1440,0L1418.2,0C1396.4,0,1353,0,1309,0C1265.5,0,1222,0,1178,0C1134.5,0,1091,0,1047,0C1003.6,0,960,0,916,0C872.7,0,829,0,785,0C741.8,0,698,0,655,0C610.9,0,567,0,524,0C480,0,436,0,393,0C349.1,0,305,0,262,0C218.2,0,175,0,131,0C87.3,0,44,0,22,0L0,0Z"></path></svg>